<svg width="25" height="25" viewBox="0 0 25 25" fill="none" xmlns="http://www.w3.org/2000/svg">
<mask id="mask0_449_1386" style="mask-type:alpha" maskUnits="userSpaceOnUse" x="0" y="0" width="25" height="25">
<rect width="24.4875" height="24.4875" fill="#D9D9D9"/>
</mask>
<g mask="url(#mask0_449_1386)">
<path d="M7.34641 2.34647H17.1414V9.9478C17.1414 10.3219 17.0523 10.6661 16.8741 10.9804C16.6952 11.2953 16.4442 11.5463 16.1211 11.7333L12.601 13.8505L13.3407 16.2227H16.7333L13.9529 18.1868L15.0243 21.6304L12.2439 19.4877L9.46355 21.6304L10.5349 18.1868L7.75453 16.2227H11.1471L11.8868 13.8505L8.34121 11.7589C8.01811 11.5718 7.77154 11.3208 7.60148 11.0059C7.43143 10.6916 7.34641 10.3389 7.34641 9.9478V2.34647ZM8.87687 3.87694V9.9478C8.87687 10.0498 8.8983 10.1434 8.94115 10.2284C8.98333 10.3134 9.04693 10.3814 9.13195 10.4324L11.4787 11.8099V3.87694H8.87687ZM15.6109 3.87694H13.0091V11.8099L15.3559 10.4324C15.4409 10.3814 15.5048 10.3134 15.5477 10.2284C15.5899 10.1434 15.6109 10.0498 15.6109 9.9478V3.87694Z" fill="#1C1B1F"/>
</g>
</svg>
