<svg width="18" height="18" viewBox="0 0 18 18" fill="none" xmlns="http://www.w3.org/2000/svg">
<mask id="mask0_449_1383" style="mask-type:alpha" maskUnits="userSpaceOnUse" x="0" y="0" width="18" height="18">
<rect x="0.487518" width="17.0909" height="17.0909" fill="#D9D9D9"/>
</mask>
<g mask="url(#mask0_449_1383)">
<path d="M3.51404 13.4413V12.3731H4.93828V7.21024C4.93828 6.237 5.23808 5.37937 5.83769 4.63734C6.43682 3.89579 7.2052 3.41819 8.14283 3.20455V2.70607C8.14283 2.45683 8.22899 2.24604 8.40133 2.07371C8.57318 1.90185 8.78374 1.81592 9.03298 1.81592C9.28222 1.81592 9.49277 1.90185 9.66463 2.07371C9.83696 2.24604 9.92313 2.45683 9.92313 2.70607V3.20455C10.8608 3.41819 11.6294 3.89579 12.229 4.63734C12.8281 5.37937 13.1277 6.237 13.1277 7.21024V12.3731H14.5519V13.4413H3.51404ZM9.03298 15.5243C8.67692 15.5243 8.37427 15.3996 8.12502 15.1504C7.87578 14.9011 7.75116 14.5985 7.75116 14.2424H10.3148C10.3148 14.5985 10.1902 14.9011 9.94093 15.1504C9.69169 15.3996 9.38904 15.5243 9.03298 15.5243ZM6.00646 12.3731H12.0595V7.21024C12.0595 6.36756 11.7656 5.65235 11.1779 5.06462C10.5906 4.47735 9.87565 4.18372 9.03298 4.18372C8.1903 4.18372 7.47533 4.47735 6.88807 5.06462C6.30033 5.65235 6.00646 6.36756 6.00646 7.21024V12.3731Z" fill="#1C1B1F"/>
</g>
</svg>
